<svg aria-hidden="true" style="position: absolute; width: 0; height: 0; overflow: hidden;" version="1.1" xmlns="http://www.w3.org/2000/svg" xmlns:xlink="http://www.w3.org/1999/xlink">
<defs>
<symbol id="icon-family" viewBox="0 0 32 32">
<path fill="#fff" style="fill: var(--color1, #fff)" d="M0 5.333c0-2.946 2.388-5.333 5.333-5.333h21.333c2.946 0 5.333 2.388 5.333 5.333v21.333c0 2.946-2.388 5.333-5.333 5.333h-21.333c-2.946 0-5.333-2.388-5.333-5.333v-21.333z"></path>
<path fill="#65665c" style="fill: var(--color2, #65665c)" d="M19.542 8.875c0-0.472 0.167-0.875 0.5-1.208 0.361-0.361 0.792-0.542 1.292-0.542s0.917 0.181 1.25 0.542c0.361 0.333 0.542 0.736 0.542 1.208 0 0.5-0.181 0.931-0.542 1.292-0.333 0.333-0.75 0.5-1.25 0.5s-0.931-0.167-1.292-0.5c-0.333-0.361-0.5-0.792-0.5-1.292zM23.125 24.875v-5.333h2.208l-2.25-6.75c-0.139-0.389-0.361-0.694-0.667-0.917s-0.653-0.333-1.042-0.333h-0.083c-0.389 0-0.736 0.111-1.042 0.333s-0.528 0.528-0.667 0.917l-0.75 2.292c0.472 0.25 0.861 0.625 1.167 1.125 0.306 0.472 0.458 1 0.458 1.583v7.083h2.667zM16.458 15.542c0.361 0 0.667-0.125 0.917-0.375 0.278-0.25 0.417-0.569 0.417-0.958 0-0.361-0.139-0.667-0.417-0.917-0.25-0.278-0.556-0.417-0.917-0.417-0.389 0-0.708 0.139-0.958 0.417-0.25 0.25-0.375 0.556-0.375 0.917 0 0.389 0.125 0.708 0.375 0.958s0.569 0.375 0.958 0.375zM10.208 10.667c0.5 0 0.917-0.167 1.25-0.5 0.361-0.361 0.542-0.792 0.542-1.292 0-0.472-0.181-0.875-0.542-1.208-0.333-0.361-0.75-0.542-1.25-0.542-0.472 0-0.889 0.181-1.25 0.542-0.333 0.333-0.5 0.736-0.5 1.208 0 0.5 0.167 0.931 0.5 1.292 0.361 0.333 0.778 0.5 1.25 0.5zM12 24.875v-6.208h1.333v-5.333c0-0.5-0.181-0.917-0.542-1.25-0.333-0.361-0.75-0.542-1.25-0.542h-2.667c-0.472 0-0.889 0.181-1.25 0.542-0.333 0.333-0.5 0.75-0.5 1.25v5.333h1.333v6.208h3.542zM17.792 24.875v-3.542h0.875v-3.542c0-0.361-0.139-0.667-0.417-0.917-0.25-0.278-0.556-0.417-0.917-0.417h-1.792c-0.361 0-0.681 0.139-0.958 0.417-0.25 0.25-0.375 0.556-0.375 0.917v3.542h0.917v3.542h2.667z"></path>
</symbol>
<symbol id="icon-logo" viewBox="0 0 105 32">
<path fill="#cf6f49" style="fill: var(--color3, #cf6f49)" d="M20 0h-8c-6.627 0-12 5.373-12 12v8c0 6.627 5.373 12 12 12h8c6.627 0 12-5.373 12-12v-8c0-6.627-5.373-12-12-12z"></path>
<path fill="#2a2c1f" style="fill: var(--color4, #2a2c1f)" d="M41.36 23v-14h5.14c1.12 0 2.040 0.193 2.76 0.58 0.733 0.373 1.28 0.887 1.64 1.54 0.36 0.64 0.54 1.353 0.54 2.14 0 0.853-0.227 1.633-0.68 2.34-0.44 0.707-1.133 1.22-2.080 1.54l2.9 5.86h-2.94l-2.6-5.52h-2.12v5.52h-2.56zM43.92 15.6h2.42c0.853 0 1.48-0.207 1.88-0.62s0.6-0.96 0.6-1.64c0-0.667-0.2-1.2-0.6-1.6-0.387-0.4-1.020-0.6-1.9-0.6h-2.4v4.46zM57.975 23.24c-1 0-1.887-0.213-2.66-0.64s-1.38-1.027-1.82-1.8-0.66-1.667-0.66-2.68c0-1.027 0.213-1.94 0.64-2.74 0.44-0.8 1.040-1.42 1.8-1.86 0.773-0.453 1.68-0.68 2.72-0.68 0.973 0 1.833 0.213 2.58 0.64s1.327 1.013 1.74 1.76c0.427 0.733 0.64 1.553 0.64 2.46 0 0.147-0.007 0.3-0.020 0.46 0 0.16-0.007 0.327-0.020 0.5h-7.54c0.053 0.773 0.32 1.38 0.8 1.82 0.493 0.44 1.087 0.66 1.78 0.66 0.52 0 0.953-0.113 1.3-0.34 0.36-0.24 0.627-0.547 0.8-0.92h2.6c-0.187 0.627-0.5 1.2-0.94 1.72-0.427 0.507-0.96 0.907-1.6 1.2-0.627 0.293-1.34 0.44-2.14 0.44zM57.995 14.92c-0.627 0-1.18 0.18-1.66 0.54-0.48 0.347-0.787 0.88-0.92 1.6h4.94c-0.040-0.653-0.28-1.173-0.72-1.56s-0.987-0.58-1.64-0.58zM68.529 23.24c-0.853 0-1.553-0.133-2.1-0.4-0.547-0.28-0.953-0.647-1.22-1.1s-0.4-0.953-0.4-1.5c0-0.92 0.36-1.667 1.080-2.24s1.8-0.86 3.24-0.86h2.52v-0.24c0-0.68-0.193-1.18-0.58-1.5s-0.867-0.48-1.44-0.48c-0.52 0-0.973 0.127-1.36 0.38-0.387 0.24-0.627 0.6-0.72 1.080h-2.5c0.067-0.72 0.307-1.347 0.72-1.88 0.427-0.533 0.973-0.94 1.64-1.22 0.667-0.293 1.413-0.44 2.24-0.44 1.413 0 2.527 0.353 3.34 1.060s1.22 1.707 1.22 3v6.1h-2.18l-0.24-1.6c-0.293 0.533-0.707 0.973-1.24 1.32-0.52 0.347-1.193 0.52-2.020 0.52zM69.109 21.24c0.733 0 1.3-0.24 1.7-0.72 0.413-0.48 0.673-1.073 0.78-1.78h-2.18c-0.68 0-1.167 0.127-1.46 0.38-0.293 0.24-0.44 0.54-0.44 0.9 0 0.387 0.147 0.687 0.44 0.9s0.68 0.32 1.16 0.32zM76.652 23v-14.4h2.56v14.4h-2.56zM86.687 23.24c-1.013 0-1.907-0.22-2.68-0.66s-1.387-1.053-1.84-1.84c-0.44-0.787-0.66-1.687-0.66-2.7s0.22-1.913 0.66-2.7c0.453-0.787 1.067-1.4 1.84-1.84s1.667-0.66 2.68-0.66c1.267 0 2.333 0.333 3.2 1 0.867 0.653 1.42 1.56 1.66 2.72h-2.7c-0.133-0.48-0.4-0.853-0.8-1.12-0.387-0.28-0.847-0.42-1.38-0.42-0.707 0-1.307 0.267-1.8 0.8s-0.74 1.273-0.74 2.22 0.247 1.687 0.74 2.22c0.493 0.533 1.093 0.8 1.8 0.8 0.533 0 0.993-0.133 1.38-0.4 0.4-0.267 0.667-0.647 0.8-1.14h2.7c-0.24 1.12-0.793 2.020-1.66 2.7s-1.933 1.020-3.2 1.020zM98.579 23.24c-0.96 0-1.827-0.22-2.6-0.66-0.76-0.44-1.367-1.047-1.82-1.82-0.44-0.787-0.66-1.693-0.66-2.72s0.227-1.927 0.68-2.7c0.453-0.787 1.060-1.4 1.82-1.84 0.773-0.44 1.64-0.66 2.6-0.66 0.947 0 1.8 0.22 2.561 0.66 0.773 0.44 1.38 1.053 1.82 1.84 0.453 0.773 0.68 1.673 0.68 2.7s-0.227 1.933-0.68 2.72c-0.44 0.773-1.047 1.38-1.82 1.82-0.774 0.44-1.634 0.66-2.581 0.66zM98.579 21.020c0.667 0 1.247-0.247 1.74-0.74 0.493-0.507 0.74-1.253 0.74-2.24s-0.247-1.727-0.74-2.22c-0.494-0.507-1.067-0.76-1.721-0.76-0.68 0-1.267 0.253-1.76 0.76-0.48 0.493-0.72 1.233-0.72 2.22s0.24 1.733 0.72 2.24c0.493 0.493 1.073 0.74 1.74 0.74z"></path>
</symbol>
<symbol id="icon-square-foot" viewBox="0 0 32 32">
<path fill="#65665c" style="fill: var(--color2, #65665c)" d="M7.083 24.917h10.25l-10.25-10.25v10.25zM26.083 26.083l4.167 4.167h-24.917c-0.944 0-1.778-0.361-2.5-1.083s-1.083-1.555-1.083-2.5v-24.917l4.167 4.167-1.833 1.917 1.25 1.25 1.833-1.917 3.5 3.5-1.917 1.833 1.25 1.333 1.917-1.917 3.5 3.5-1.917 1.833 1.25 1.25 1.917-1.833 3.417 3.417-1.917 1.917 1.333 1.25 1.833-1.917 3.5 3.5-1.917 1.833 1.25 1.25 1.917-1.833z"></path>
</symbol>
<symbol id="icon-bed" viewBox="0 0 45 32">
<path fill="#65665c" style="fill: var(--color2, #65665c)" d="M41.6 13.4v-5.9c0-1.2-0.3-2.267-0.9-3.2-0.533-1-1.3-1.767-2.3-2.3-0.933-0.6-2-0.9-3.2-0.9h-8.5c-0.867 0-1.667 0.167-2.4 0.5-0.733 0.267-1.367 0.633-1.9 1.1-0.533-0.467-1.167-0.833-1.9-1.1-0.733-0.333-1.533-0.5-2.4-0.5h-8.5c-1.2 0-2.3 0.3-3.3 0.9-0.933 0.533-1.7 1.3-2.3 2.3-0.533 0.933-0.8 2-0.8 3.2v5.9c-0.667 0.6-1.2 1.3-1.6 2.1-0.333 0.8-0.5 1.667-0.5 2.6v12.8h4.2v-4.2h34.2v4.2h4.2v-12.8c0-0.933-0.2-1.8-0.6-2.6-0.333-0.8-0.834-1.5-1.5-2.1zM26.7 5.3h8.5c0.6 0 1.1 0.233 1.5 0.7 0.4 0.4 0.6 0.9 0.6 1.5v4.2h-12.8v-4.2c0-0.6 0.2-1.1 0.6-1.5 0.467-0.467 1-0.7 1.6-0.7zM7.5 7.5c0-0.6 0.2-1.1 0.6-1.5 0.4-0.467 0.9-0.7 1.5-0.7h8.5c0.6 0 1.1 0.233 1.5 0.7 0.467 0.4 0.7 0.9 0.7 1.5v4.2h-12.8v-4.2zM5.3 22.4v-4.3c0-0.533 0.2-1 0.6-1.4 0.467-0.467 1-0.7 1.6-0.7h29.8c0.6 0 1.1 0.233 1.5 0.7 0.467 0.4 0.7 0.867 0.7 1.4v4.3h-34.2z"></path>
</symbol>
<symbol id="icon-bathtub" viewBox="0 0 32 32">
<path fill="#65665c" style="fill: var(--color2, #65665c)" d="M28.214 17.5h3v9.143c0 0.81-0.309 1.524-0.928 2.143-0.571 0.619-1.262 0.928-2.071 0.928 0 0.429-0.167 0.786-0.5 1.072-0.286 0.286-0.643 0.428-1.072 0.428h-21.286c-0.429 0-0.81-0.143-1.143-0.428-0.286-0.286-0.429-0.643-0.429-1.072-0.81 0-1.524-0.309-2.143-0.928-0.571-0.619-0.857-1.334-0.857-2.143v-9.143h4.571v-1.143c0-0.905 0.333-1.69 1-2.357 0.714-0.714 1.524-1.071 2.429-1.071 0.952 0 1.81 0.381 2.571 1.143l2.071 2.357c0.286 0.333 0.714 0.69 1.286 1.071h10.429v-12.429c0-0.333-0.119-0.619-0.357-0.857-0.238-0.286-0.548-0.429-0.929-0.429-0.333 0-0.619 0.119-0.857 0.357l-1.929 1.929c0.095 0.381 0.143 0.643 0.143 0.786 0 0.524-0.167 1.071-0.5 1.643l-4.214-4.214c0.571-0.333 1.119-0.5 1.643-0.5 0.238 0 0.5 0.048 0.786 0.143l1.929-1.929c0.81-0.81 1.81-1.214 3-1.214s2.214 0.429 3.071 1.286c0.857 0.81 1.286 1.81 1.286 3v12.429zM6.214 10.571c-0.571-0.619-0.857-1.357-0.857-2.214s0.286-1.571 0.857-2.143c0.571-0.571 1.286-0.857 2.143-0.857s1.571 0.286 2.143 0.857c0.619 0.571 0.929 1.286 0.929 2.143s-0.31 1.595-0.929 2.214c-0.571 0.571-1.286 0.857-2.143 0.857s-1.571-0.286-2.143-0.857z"></path>
</symbol>
<symbol id="icon-place" viewBox="0 0 23 32">
<path fill="#65665c" style="fill: var(--color2, #65665c)" d="M8.714 14.143c0.762 0.714 1.667 1.071 2.714 1.071s1.929-0.357 2.643-1.071c0.762-0.762 1.143-1.667 1.143-2.714s-0.381-1.929-1.143-2.643c-0.714-0.762-1.595-1.143-2.643-1.143s-1.952 0.381-2.714 1.143c-0.714 0.714-1.071 1.595-1.071 2.643s0.357 1.952 1.071 2.714zM3.857 3.929c2.095-2.095 4.619-3.143 7.571-3.143s5.452 1.048 7.5 3.143c2.095 2.048 3.143 4.548 3.143 7.5 0 1.476-0.381 3.167-1.143 5.071-0.714 1.905-1.595 3.69-2.643 5.357s-2.095 3.238-3.143 4.714c-1 1.429-1.857 2.571-2.571 3.429l-1.143 1.214c-0.286-0.333-0.667-0.762-1.143-1.285-0.476-0.571-1.333-1.667-2.571-3.286-1.238-1.666-2.333-3.262-3.286-4.786-0.905-1.571-1.738-3.333-2.5-5.286s-1.143-3.667-1.143-5.143c0-2.952 1.024-5.452 3.071-7.5z"></path>
</symbol>
<symbol id="icon-description" viewBox="0 0 25 32">
<path fill="#cf6f49" style="fill: var(--color3, #cf6f49)" d="M14.071 11.429h8.429l-8.429-8.357v8.357zM18.643 19.071v-3.071h-12.143v3.071h12.143zM18.643 25.143v-3.071h-12.143v3.071h12.143zM15.643 0.786l9.143 9.143v18.286c0 0.809-0.309 1.524-0.929 2.143-0.619 0.571-1.333 0.857-2.143 0.857h-18.286c-0.81 0-1.524-0.286-2.143-0.857-0.619-0.619-0.929-1.333-0.929-2.143l0.071-24.429c0-0.81 0.286-1.5 0.857-2.071 0.619-0.619 1.333-0.929 2.143-0.929h12.214z"></path>
</symbol>
<symbol id="icon-payments" viewBox="0 0 44 32">
<path fill="#cf6f49" style="fill: var(--color3, #cf6f49)" d="M35.364 19.909v-15.545c0-1.091-0.394-2-1.182-2.727-0.727-0.788-1.606-1.182-2.636-1.182h-27.182c-1.091 0-2.030 0.394-2.818 1.182-0.727 0.727-1.091 1.636-1.091 2.727v15.545c0 1.030 0.364 1.939 1.091 2.727 0.788 0.727 1.727 1.091 2.818 1.091h27.182c1.030 0 1.909-0.364 2.636-1.091 0.788-0.788 1.182-1.697 1.182-2.727zM17.909 17.909c-1.030 0-2-0.242-2.909-0.727-0.848-0.545-1.545-1.242-2.091-2.091-0.545-0.909-0.818-1.909-0.818-3 0-1.030 0.273-1.97 0.818-2.818 0.545-0.909 1.242-1.636 2.091-2.182 0.909-0.545 1.879-0.818 2.909-0.818 1.091 0 2.061 0.273 2.909 0.818 0.909 0.545 1.606 1.273 2.091 2.182 0.545 0.848 0.818 1.788 0.818 2.818 0 1.091-0.273 2.091-0.818 3-0.485 0.848-1.182 1.545-2.091 2.091-0.848 0.485-1.818 0.727-2.909 0.727zM43.182 6.273v21.364c0 1.091-0.394 2.030-1.182 2.818-0.727 0.727-1.636 1.091-2.727 1.091h-33v-3.909h33v-21.364h3.909z"></path>
</symbol>
<symbol id="icon-chevron-right" viewBox="0 0 24 32">
<path d="M6.625 0l16 16-16 16-3.75-3.75 12.25-12.25-12.25-12.25 3.75-3.75z"></path>
</symbol>
<symbol id="icon-key" viewBox="0 0 60 32">
<path fill="#cf6f49" style="fill: var(--color3, #cf6f49)" d="M54 10.625h-22.25c-0.75-2.083-1.875-3.917-3.375-5.5-1.417-1.583-3.167-2.833-5.25-3.75-2-0.917-4.167-1.375-6.5-1.375-2.917 0-5.583 0.75-8 2.25-2.417 1.417-4.375 3.333-5.875 5.75-1.417 2.417-2.125 5.083-2.125 8s0.708 5.583 2.125 8c1.5 2.417 3.458 4.375 5.875 5.875 2.417 1.417 5.083 2.125 8 2.125 2.333 0 4.5-0.458 6.5-1.375 2.083-0.917 3.833-2.167 5.25-3.75 1.5-1.583 2.625-3.417 3.375-5.5h0.875l5.375 5.25 5.375-5.25 5.25 5.25 10.75-10.75-5.375-5.25zM16.625 24c-1.417 0-2.75-0.333-4-1-1.167-0.75-2.125-1.708-2.875-2.875-0.75-1.25-1.125-2.625-1.125-4.125s0.375-2.833 1.125-4c0.75-1.25 1.708-2.208 2.875-2.875 1.25-0.75 2.583-1.125 4-1.125 1.5 0 2.833 0.375 4 1.125 1.25 0.667 2.208 1.625 2.875 2.875 0.75 1.167 1.125 2.5 1.125 4s-0.375 2.875-1.125 4.125c-0.667 1.167-1.625 2.125-2.875 2.875-1.167 0.667-2.5 1-4 1z"></path>
</symbol>
<symbol id="icon-receipt" viewBox="0 0 27 32">
<path fill="#cf6f49" style="fill: var(--color3, #cf6f49)" d="M0 31.214v-30.429l2.286 2.286 2.286-2.286 2.286 2.286 2.286-2.286 2.286 2.286 2.286-2.286 2.286 2.286 2.286-2.286 2.286 2.286 2.286-2.286 2.286 2.286 2.286-2.286v30.429l-2.286-2.286-2.286 2.286-2.286-2.286-2.286 2.286-2.286-2.286-2.286 2.286-2.286-2.286-2.286 2.286-2.286-2.286-2.286 2.286-2.286-2.286-2.286 2.286zM22.857 11.429v-3.071h-18.286v3.071h18.286zM22.857 17.5v-3h-18.286v3h18.286zM22.857 23.643v-3.071h-18.286v3.071h18.286z"></path>
</symbol>
<symbol id="icon-house" viewBox="0 0 39 32">
<path fill="#cf6f49" style="fill: var(--color3, #cf6f49)" d="M15.739 12.957h7.478c0-0.986-0.377-1.826-1.13-2.522-0.754-0.754-1.623-1.13-2.609-1.13s-1.855 0.377-2.609 1.13c-0.754 0.696-1.13 1.536-1.13 2.522zM32.435 11.652l5.565 5.043h-5.565v14.87h-9.217v-11.13h-7.478v11.13h-9.217v-14.87h-5.565l18.522-16.696 7.391 6.696v-4.87h5.565v9.826z"></path>
</symbol>
<symbol id="icon-search" viewBox="0 0 32 32">
<path d="M6.547 17.172c1.458 1.458 3.229 2.188 5.313 2.188s3.854-0.729 5.313-2.188c1.458-1.458 2.188-3.229 2.188-5.313s-0.729-3.854-2.188-5.313c-1.458-1.458-3.229-2.188-5.313-2.188s-3.854 0.729-5.313 2.188c-1.458 1.458-2.188 3.229-2.188 5.313s0.729 3.854 2.188 5.313zM21.859 19.359l8.281 8.281-2.5 2.5-8.281-8.281v-1.328l-0.469-0.469c-1.979 1.719-4.323 2.578-7.031 2.578-3.021 0-5.599-1.042-7.734-3.125-2.083-2.083-3.125-4.635-3.125-7.656s1.042-5.573 3.125-7.656c2.135-2.135 4.714-3.203 7.734-3.203s5.573 1.068 7.656 3.203c2.083 2.083 3.125 4.635 3.125 7.656 0 1.094-0.26 2.344-0.781 3.75-0.521 1.354-1.12 2.448-1.797 3.281l0.469 0.469h1.328z"></path>
</symbol>
<symbol id="icon-expand-more" viewBox="0 0 46 32">
<path d="M40.357 0.679l5.357 5.357-22.857 22.857-22.857-22.857 5.357-5.357 17.5 17.5 17.5-17.5z"></path>
</symbol>
<symbol id="icon-shopping-bag" viewBox="0 0 25 32">
<path d="M21.333 7.111h-2.986c0-1.111-0.278-2.106-0.833-2.986-0.509-0.88-1.204-1.574-2.083-2.083-0.88-0.556-1.875-0.833-2.986-0.833s-2.107 0.278-2.986 0.833c-0.88 0.509-1.597 1.204-2.153 2.083-0.509 0.88-0.764 1.875-0.764 2.986h-2.986c-0.833 0-1.551 0.301-2.153 0.903-0.556 0.556-0.833 1.25-0.833 2.083v17.778c0 0.787 0.278 1.481 0.833 2.083 0.602 0.556 1.319 0.833 2.153 0.833h17.778c0.833 0 1.528-0.278 2.083-0.833 0.602-0.602 0.903-1.296 0.903-2.083v-17.778c0-0.833-0.301-1.528-0.903-2.083-0.556-0.602-1.25-0.903-2.083-0.903zM9.458 13.014c0 0.417-0.139 0.787-0.417 1.111-0.278 0.278-0.625 0.417-1.042 0.417s-0.764-0.139-1.042-0.417c-0.278-0.324-0.417-0.694-0.417-1.111v-2.917h2.917v2.917zM12.444 4.125c0.833 0 1.528 0.301 2.083 0.903 0.602 0.556 0.903 1.25 0.903 2.083h-5.972c0-0.833 0.278-1.528 0.833-2.083 0.602-0.602 1.319-0.903 2.153-0.903zM18.347 13.014c0 0.417-0.139 0.787-0.417 1.111-0.278 0.278-0.625 0.417-1.042 0.417s-0.764-0.139-1.042-0.417c-0.278-0.324-0.417-0.694-0.417-1.111v-2.917h2.917v2.917z"></path>
</symbol>
</defs>
</svg>
